<svg xmlns="http://www.w3.org/2000/svg" xmlns:xlink="http://www.w3.org/1999/xlink" width="753" height="821" viewBox="0 0 753 821">
  <defs>
    <filter id="Ellipse_6" x="151" y="0" width="602" height="602" filterUnits="userSpaceOnUse">
      <feOffset dx="15" dy="25" input="SourceAlpha"/>
      <feGaussianBlur stdDeviation="90" result="blur"/>
      <feFlood flood-color="#ffb340" flood-opacity="0.502"/>
      <feComposite operator="in" in2="blur"/>
      <feComposite in="SourceGraphic"/>
    </filter>
    <filter id="Ellipse_5" x="0" y="80" width="741" height="741" filterUnits="userSpaceOnUse">
      <feOffset dx="15" dy="25" input="SourceAlpha"/>
      <feGaussianBlur stdDeviation="90" result="blur-2"/>
      <feFlood flood-color="#ff6e6d" flood-opacity="0.502"/>
      <feComposite operator="in" in2="blur-2"/>
      <feComposite in="SourceGraphic"/>
    </filter>
  </defs>
  <g id="Heart_Ornament" data-name="Heart Ornament" transform="translate(-533 -444.413)">
    <g transform="matrix(1, 0, 0, 1, 533, 444.41)" filter="url(#Ellipse_6)">
      <circle id="Ellipse_6-2" data-name="Ellipse 6" cx="31" cy="31" r="31" transform="translate(406 245)" fill="#ffb340"/>
    </g>
    <g transform="matrix(1, 0, 0, 1, 533, 444.41)" filter="url(#Ellipse_5)">
      <circle id="Ellipse_5-2" data-name="Ellipse 5" cx="100.5" cy="100.5" r="100.5" transform="translate(255 325)" fill="#ff6e6d"/>
    </g>
    <path id="Heart_Icon" data-name="Heart Icon" d="M50.252,80.4a3.483,3.483,0,0,1-2.468-.942l-35-31.512a18.063,18.063,0,0,1-1.542-1.361q-.981-.942-3.113-3.429a46.412,46.412,0,0,1-3.814-5.1,30.689,30.689,0,0,1-3-6.334A21.552,21.552,0,0,1,0,24.5Q0,12.982,7.123,6.491T26.809,0A23.8,23.8,0,0,1,33.9,1.125a29.634,29.634,0,0,1,6.73,3.036q3.113,1.911,5.356,3.586a50.674,50.674,0,0,1,4.262,3.56,50.674,50.674,0,0,1,4.262-3.56q2.243-1.675,5.356-3.586A29.634,29.634,0,0,1,66.6,1.125,23.805,23.805,0,0,1,73.7,0Q86.259,0,93.382,6.491T100.5,24.5q0,11.568-12.843,23.556L52.72,79.461A3.483,3.483,0,0,1,50.252,80.4Z" transform="translate(838.252 829.706)" fill="#fff"/>
  </g>
</svg>
